<?xml version="1.0" standalone="no"?>
<!DOCTYPE svg PUBLIC "-//W3C//DTD SVG 20010904//EN"
 "http://www.w3.org/TR/2001/REC-SVG-20010904/DTD/svg10.dtd">
<svg version="1.1" xmlns="http://www.w3.org/2000/svg" xmlns:xlink="http://www.w3.org/1999/xlink"
xmlns:ev="http://www.w3.org/2001/xml-events"
width="2364.000000pt" height="958.000000pt" viewBox="0 0 2364.000000 958.000000"
preserveAspectRatio="xMidYMid meet">
<metadata>
Created by potrace 1.15, written by Peter Selinger 2001-2017
</metadata>
<defs>
	<pattern id="img1" patternUnits="userSpaceOnUse" width="2364.000000pt" height="958.000000pt">
		<image xlink:href="black.jpg" width="2364.000000pt" height="958.000000pt" preserveAspectRatio="xMidYMid slice"/>
    </pattern>
</defs>
<g transform="translate(0.000000,2200.000000) scale(0.100000,-0.100000)"
fill="#000000" stroke="none">
<path d="M7180 17607 c-57 -117 -252 -511 -433 -877 -181 -366 -392 -792 -468
-947 -77 -158 -144 -283 -151 -283 -7 0 -260 22 -563 49 -302 27 -551 48 -552
47 -1 -1 11 -121 27 -266 16 -146 47 -431 69 -635 22 -203 43 -389 46 -411 5
-39 4 -42 -22 -52 -15 -5 -153 -60 -305 -122 l-276 -112 54 -83 c30 -46 54
-85 54 -87 0 -2 -259 43 -576 101 -445 81 -577 102 -583 92 -5 -8 -18 -10 -34
-5 -21 5 -27 3 -27 -11 0 -11 -5 -15 -15 -11 -9 3 -15 0 -15 -10 0 -11 -6 -15
-20 -11 -14 3 -20 0 -20 -10 0 -11 -6 -14 -21 -10 -24 6 -24 19 -3 -245 l7
-78 -61 0 c-34 0 -63 -3 -65 -7 -6 -10 107 -1770 114 -1777 3 -3 88 16 190 43
321 84 670 176 1154 302 259 67 471 123 472 124 1 0 -1 49 -5 108 -4 62 -4
107 2 107 8 0 288 -142 692 -351 l171 -89 354 -40 c195 -22 453 -52 574 -66
121 -13 633 -72 1137 -129 504 -58 925 -105 936 -105 15 0 18 6 14 30 l-4 29
51 -6 c51 -6 51 -6 51 22 0 16 3 25 7 22 3 -4 10 -55 14 -113 5 -59 10 -108
11 -110 2 -1 110 -15 242 -31 163 -19 240 -32 243 -41 3 -7 -6 -108 -20 -225
-14 -116 -24 -214 -22 -216 4 -3 2041 53 2300 64 66 2 224 7 350 10 127 3 282
7 345 10 63 3 218 8 344 11 137 4 237 11 250 18 12 6 801 315 1753 686 l1730
675 -23 31 c-26 33 -29 44 -15 44 5 0 30 9 56 20 47 20 47 20 31 45 -17 26
-14 45 8 45 7 0 20 6 30 13 18 13 18 15 1 40 -9 15 -13 27 -7 27 5 0 26 7 46
15 l36 15 -17 27 c-10 15 -13 28 -8 30 6 2 27 11 47 21 l37 17 -215 299 c-118
165 -211 303 -207 307 5 3 63 46 130 94 68 47 125 90 127 94 3 4 -81 129 -186
277 -105 148 -239 337 -298 419 -58 83 -162 229 -230 325 -68 96 -156 220
-195 275 -92 130 -265 373 -390 550 -55 77 -131 185 -170 240 -40 55 -172 242
-295 415 -241 340 -356 502 -580 818 -79 111 -147 201 -150 200 -4 -2 -348
-363 -765 -803 -418 -440 -775 -817 -795 -837 l-35 -37 -575 69 c-316 39 -971
117 -1455 176 l-880 106 -115 87 c-63 48 -209 159 -325 246 -196 148 -334 253
-740 560 -88 67 -261 198 -385 291 -539 408 -612 463 -746 565 l-141 107 -103
-211z m2872 -2228 c125 -94 228 -172 228 -173 0 -2 -30 -27 -67 -57 -38 -30
-132 -106 -209 -169 -78 -63 -219 -178 -314 -255 -95 -77 -239 -194 -320 -260
-261 -212 -871 -707 -930 -754 l-45 -36 30 41 c108 147 1389 1834 1393 1834 3
0 108 -77 234 -171z m-2830 -151 c76 -6 138 -14 138 -17 0 -7 -423 -1246 -434
-1271 -8 -18 -10 -46 55 698 l53 602 25 0 c14 0 87 -5 163 -12z m6243 -74
c171 -20 312 -37 313 -39 2 -2 -28 -86 -66 -187 -38 -101 -185 -491 -327 -868
-142 -377 -259 -686 -260 -688 -1 -1 -60 20 -131 47 -117 45 -129 51 -127 73
2 12 48 399 103 859 55 460 100 840 100 844 0 4 19 5 43 1 23 -3 182 -22 352
-42z m-3217 -34 c-2 -4 -235 -195 -518 -425 -283 -231 -571 -464 -639 -519
-158 -129 -427 -347 -622 -505 -85 -68 -163 -131 -173 -140 -18 -15 -18 -15
-8 4 16 31 112 118 272 247 80 64 215 174 300 243 85 69 207 168 270 219 63
51 337 274 609 494 429 348 524 420 509 382z m-2964 -325 c-125 -368 -232
-682 -317 -933 -34 -100 -63 -178 -65 -174 -2 8 59 191 379 1130 57 166 105
299 106 295 2 -5 -45 -148 -103 -318z m-133 -491 c-143 -417 -260 -752 -261
-744 0 21 513 1525 517 1513 2 -5 -113 -351 -256 -769z m3074 727 c-6 -4 -59
-48 -120 -97 -60 -48 -137 -110 -170 -137 -33 -27 -100 -82 -150 -122 -98 -79
-197 -160 -266 -216 -59 -49 -1272 -1033 -1329 -1078 l-44 -36 22 31 c25 36
97 104 198 185 38 31 265 215 504 410 239 194 498 404 575 467 287 233 474
385 619 502 103 84 152 118 160 110 6 -6 6 -13 1 -19z m3572 -19 c15 -9 -606
-1662 -625 -1662 -7 0 -15 6 -18 14 -3 7 68 206 157 442 89 236 224 596 300
799 77 204 144 380 149 393 10 23 18 26 37 14z m-3581 -48 c2 -5 -54 -54 -123
-109 -69 -55 -205 -165 -303 -245 -98 -80 -256 -208 -351 -285 -95 -77 -214
-174 -265 -215 -50 -41 -167 -137 -260 -212 -170 -138 -591 -480 -782 -636
-57 -46 -105 -82 -107 -80 -3 2 15 26 39 54 47 54 47 53 1151 950 418 340 809
657 869 706 102 83 126 96 132 72z m3611 -52 c9 -6 -67 -220 -284 -795 -164
-433 -300 -787 -303 -787 -3 0 -12 4 -19 9 -12 8 6 64 103 323 65 172 194 513
286 758 204 542 188 500 197 500 5 0 14 -4 20 -8z m48 -109 c-4 -10 -128 -340
-276 -733 -148 -393 -273 -722 -278 -730 -7 -12 -38 -16 -49 -6 -1 2 34 99 79
217 44 118 165 439 269 714 104 275 193 512 199 528 8 20 17 27 37 27 21 0 25
-4 19 -17z m-7325 -170 c0 -5 38 -269 84 -587 84 -584 86 -614 36 -501 -30 67
-389 959 -392 974 -2 9 39 31 122 66 127 54 150 61 150 48z m-475 -544 c176
-226 347 -445 380 -487 32 -42 50 -70 39 -62 -41 31 -442 344 -822 643 -56 44
-101 84 -100 89 5 14 172 228 178 227 3 0 149 -185 325 -410z m5575 -219 c690
-260 1269 -478 1285 -486 l30 -14 -35 5 c-19 3 -212 72 -430 154 -605 229
-1428 538 -1802 679 -186 70 -338 131 -338 136 0 4 8 6 18 4 9 -3 582 -218
1272 -478z m-750 240 c311 -117 840 -316 1175 -442 689 -258 737 -277 713
-278 -16 0 -271 95 -1678 625 -272 102 -562 211 -645 242 -82 30 -154 60 -160
66 -17 17 14 6 595 -213z m-240 53 c212 -80 696 -262 1075 -405 380 -143 746
-280 814 -306 68 -25 119 -48 113 -50 -10 -3 -414 147 -1462 543 -140 53 -412
155 -605 227 -192 72 -354 135 -360 141 -16 15 13 5 425 -150z m295 -148 c418
-157 941 -354 1162 -437 222 -84 401 -153 400 -155 -5 -4 -2418 285 -2424 290
-4 5 53 529 63 576 3 16 10 22 22 18 9 -3 359 -134 777 -292z m-6987 -192
c332 -59 600 -109 595 -110 -13 -4 -1093 -73 -1144 -73 l-47 0 -6 88 c-4 48
-9 113 -12 145 -3 31 -2 57 3 57 4 0 280 -48 611 -107z m12691 -549 c119 -167
200 -289 195 -294 -5 -5 -313 -129 -684 -275 -371 -147 -760 -301 -865 -342
-104 -41 -302 -119 -440 -173 -137 -54 -364 -144 -504 -199 -140 -56 -256
-100 -257 -98 -3 3 49 41 361 262 116 82 251 178 302 214 51 36 162 116 248
176 85 61 213 151 283 201 70 50 222 157 337 239 116 82 280 198 365 259 392
278 445 315 450 315 3 0 97 -128 209 -285z m141 -369 c10 -12 8 -16 -11 -24
-144 -56 -1519 -599 -2099 -828 -677 -268 -793 -313 -797 -309 -3 2 22 22 55
44 43 30 294 133 948 392 1484 586 1675 661 1774 701 109 43 113 44 130 24z
m-56 -91 c4 -9 5 -18 4 -19 -2 -1 -142 -56 -313 -123 -282 -110 -966 -380
-2025 -799 -217 -86 -473 -187 -568 -224 -96 -38 -177 -69 -180 -69 -3 0 22
21 57 46 53 38 166 86 680 290 339 134 996 394 1461 578 465 184 852 335 861
335 9 1 20 -6 23 -15z m-46 -84 c12 -19 9 -22 -25 -37 -21 -8 -425 -168 -898
-355 -473 -187 -957 -378 -1075 -425 -118 -47 -305 -120 -415 -163 -110 -43
-348 -137 -529 -209 -182 -72 -331 -129 -333 -128 -4 5 97 74 147 100 25 13
482 197 1015 407 534 211 1222 483 1530 606 308 122 562 222 565 223 3 1 11
-8 18 -19z m-7418 -491 c21 -156 38 -285 36 -286 -1 -2 -330 33 -732 78 -401
44 -933 102 -1181 129 -249 28 -462 50 -474 50 -12 0 -20 2 -18 5 5 4 277 41
1324 179 314 42 667 88 785 104 118 16 216 28 218 27 1 -1 20 -130 42 -286z
m-2154 -69 c148 -16 580 -63 959 -105 380 -41 790 -86 913 -100 123 -14 227
-25 233 -25 5 0 9 -7 9 -15 0 -8 -1 -15 -2 -15 -2 0 -349 38 -773 85 -423 46
-987 108 -1252 137 -266 29 -483 56 -483 60 0 15 129 8 396 -22z m-401 -5 c72
-8 441 -49 820 -90 1444 -158 1610 -177 1619 -186 5 -5 7 -12 3 -15 -6 -6
-2550 269 -2627 284 l-35 6 40 7 c22 3 42 7 45 8 3 0 64 -6 135 -14z m405 -95
c349 -38 935 -102 1302 -142 511 -56 669 -76 673 -87 3 -8 4 -15 2 -17 -2 -2
-145 12 -318 31 -328 36 -1222 134 -1924 210 -342 38 -466 52 -579 66 -6 1 7
5 29 10 59 11 119 6 815 -71z" fill="url(#img1)"/>
</g>
</svg>
