<?xml version="1.1" standalone="no"?>
<!DOCTYPE svg PUBLIC "-//W3C//DTD SVG 20010904//EN"
 "http://www.w3.org/TR/2001/REC-SVG-20010904/DTD/svg10.dtd">
<svg version="1.1" xmlns="http://www.w3.org/2000/svg" xmlns:xlink="http://www.w3.org/1999/xlink"
xmlns:ev="http://www.w3.org/2001/xml-events"
width="2364.000000pt" height="958.000000pt" viewBox="0 0 2364.000000 958.000000"
preserveAspectRatio="xMidYMid meet">
<metadata>
Created by potrace 1.15, written by Peter Selinger 2001-2017
</metadata>
<defs>
	<pattern id="img1" patternUnits="userSpaceOnUse" width="2364.000000pt" height="958.000000pt">
		<image xlink:href="rainbow.jpg" width="2364.000000pt" height="958.000000pt" preserveAspectRatio="xMidYMid slice"/>
    </pattern>
</defs>
<g transform="translate(0.000000,2200.000000) scale(0.100000,-0.100000)"
fill="#000000" stroke="none">
<path d="M7180 17607 c-57 -117 -252 -511 -433 -877 -181 -366 -392 -792 -468
-947 -77 -158 -144 -283 -151 -283 -7 0 -260 22 -563 49 -302 27 -551 48 -552
47 -1 -1 11 -121 27 -266 16 -146 47 -431 69 -635 22 -203 43 -389 46 -411 5
-39 4 -42 -22 -52 -15 -5 -153 -60 -305 -122 l-276 -112 54 -83 c30 -46 54
-85 54 -87 0 -2 -259 43 -576 101 -445 81 -577 102 -583 92 -5 -8 -18 -10 -34
-5 -21 5 -27 3 -27 -11 0 -11 -5 -15 -15 -11 -9 3 -15 0 -15 -10 0 -11 -6 -15
-20 -11 -14 3 -20 0 -20 -10 0 -11 -6 -14 -21 -10 -24 6 -24 19 -3 -245 l7
-78 -61 0 c-34 0 -63 -3 -65 -7 -6 -10 107 -1770 114 -1777 3 -3 88 16 190 43
321 84 670 176 1154 302 259 67 471 123 472 124 1 0 -1 49 -5 108 -4 62 -4
107 2 107 8 0 288 -142 692 -351 l171 -89 354 -40 c195 -22 453 -52 574 -66
121 -13 633 -72 1137 -129 504 -58 925 -105 936 -105 15 0 18 6 14 30 l-4 29
51 -6 c51 -6 51 -6 51 22 0 16 3 25 7 22 3 -4 10 -55 14 -113 5 -59 10 -108
11 -110 2 -1 110 -15 242 -31 163 -19 240 -32 243 -41 3 -7 -6 -108 -20 -225
-14 -116 -24 -214 -22 -216 4 -3 2041 53 2300 64 66 2 224 7 350 10 127 3 282
7 345 10 63 3 218 8 344 11 137 4 237 11 250 18 12 6 801 315 1753 686 l1730
675 -23 31 c-26 33 -29 44 -15 44 5 0 30 9 56 20 47 20 47 20 31 45 -17 26
-14 45 8 45 7 0 20 6 30 13 18 13 18 15 1 40 -9 15 -13 27 -7 27 5 0 26 7 46
15 l36 15 -17 27 c-10 15 -13 28 -8 30 6 2 27 11 47 21 l37 17 -215 299 c-118
165 -211 303 -207 307 5 3 63 46 130 94 68 47 125 90 127 94 3 4 -81 129 -186
277 -105 148 -239 337 -298 419 -58 83 -162 229 -230 325 -68 96 -156 220
-195 275 -92 130 -265 373 -390 550 -55 77 -131 185 -170 240 -40 55 -172 242
-295 415 -241 340 -356 502 -580 818 -79 111 -147 201 -150 200 -4 -2 -348
-363 -765 -803 -418 -440 -775 -817 -795 -837 l-35 -37 -575 69 c-316 39 -971
117 -1455 176 l-880 106 -115 87 c-63 48 -209 159 -325 246 -196 148 -334 253
-740 560 -88 67 -261 198 -385 291 -539 408 -612 463 -746 565 l-141 107 -103
-211z m2872 -2228 c125 -94 228 -172 228 -173 0 -2 -30 -27 -67 -57 -38 -30
-132 -106 -209 -169 -78 -63 -219 -178 -314 -255 -95 -77 -239 -194 -320 -260
-261 -212 -871 -707 -930 -754 l-45 -36 30 41 c108 147 1389 1834 1393 1834 3
0 108 -77 234 -171z m-2830 -151 c76 -6 138 -14 138 -17 0 -7 -423 -1246 -434
-1271 -8 -18 -10 -46 55 698 l53 602 25 0 c14 0 87 -5 163 -12z m6243 -74
c171 -20 312 -37 313 -39 2 -2 -28 -86 -66 -187 -38 -101 -185 -491 -327 -868
-142 -377 -259 -686 -260 -688 -1 -1 -60 20 -131 47 -117 45 -129 51 -127 73
2 12 48 399 103 859 55 460 100 840 100 844 0 4 19 5 43 1 23 -3 182 -22 352
-42z m-3217 -34 c-2 -4 -235 -195 -518 -425 -283 -231 -571 -464 -639 -519
-158 -129 -427 -347 -622 -505 -85 -68 -163 -131 -173 -140 -18 -15 -18 -15
-8 4 16 31 112 118 272 247 80 64 215 174 300 243 85 69 207 168 270 219 63
51 337 274 609 494 429 348 524 420 509 382z m-2964 -325 c-125 -368 -232
-682 -317 -933 -34 -100 -63 -178 -65 -174 -2 8 59 191 379 1130 57 166 105
299 106 295 2 -5 -45 -148 -103 -318z m-133 -491 c-143 -417 -260 -752 -261
-744 0 21 513 1525 517 1513 2 -5 -113 -351 -256 -769z m3074 727 c-6 -4 -59
-48 -120 -97 -60 -48 -137 -110 -170 -137 -33 -27 -100 -82 -150 -122 -98 -79
-197 -160 -266 -216 -59 -49 -1272 -1033 -1329 -1078 l-44 -36 22 31 c25 36
97 104 198 185 38 31 265 215 504 410 239 194 498 404 575 467 287 233 474
385 619 502 103 84 152 118 160 110 6 -6 6 -13 1 -19z m3572 -19 c15 -9 -606
-1662 -625 -1662 -7 0 -15 6 -18 14 -3 7 68 206 157 442 89 236 224 596 300
799 77 204 144 380 149 393 10 23 18 26 37 14z m-3581 -48 c2 -5 -54 -54 -123
-109 -69 -55 -205 -165 -303 -245 -98 -80 -256 -208 -351 -285 -95 -77 -214
-174 -265 -215 -50 -41 -167 -137 -260 -212 -170 -138 -591 -480 -782 -636
-57 -46 -105 -82 -107 -80 -3 2 15 26 39 54 47 54 47 53 1151 950 418 340 809
657 869 706 102 83 126 96 132 72z m3611 -52 c9 -6 -67 -220 -284 -795 -164
-433 -300 -787 -303 -787 -3 0 -12 4 -19 9 -12 8 6 64 103 323 65 172 194 513
286 758 204 542 188 500 197 500 5 0 14 -4 20 -8z m48 -109 c-4 -10 -128 -340
-276 -733 -148 -393 -273 -722 -278 -730 -7 -12 -38 -16 -49 -6 -1 2 34 99 79
217 44 118 165 439 269 714 104 275 193 512 199 528 8 20 17 27 37 27 21 0 25
-4 19 -17z m-7325 -170 c0 -5 38 -269 84 -587 84 -584 86 -614 36 -501 -30 67
-389 959 -392 974 -2 9 39 31 122 66 127 54 150 61 150 48z m-475 -544 c176
-226 347 -445 380 -487 32 -42 50 -70 39 -62 -41 31 -442 344 -822 643 -56 44
-101 84 -100 89 5 14 172 228 178 227 3 0 149 -185 325 -410z m5575 -219 c690
-260 1269 -478 1285 -486 l30 -14 -35 5 c-19 3 -212 72 -430 154 -605 229
-1428 538 -1802 679 -186 70 -338 131 -338 136 0 4 8 6 18 4 9 -3 582 -218
1272 -478z m-750 240 c311 -117 840 -316 1175 -442 689 -258 737 -277 713
-278 -16 0 -271 95 -1678 625 -272 102 -562 211 -645 242 -82 30 -154 60 -160
66 -17 17 14 6 595 -213z m-240 53 c212 -80 696 -262 1075 -405 380 -143 746
-280 814 -306 68 -25 119 -48 113 -50 -10 -3 -414 147 -1462 543 -140 53 -412
155 -605 227 -192 72 -354 135 -360 141 -16 15 13 5 425 -150z m295 -148 c418
-157 941 -354 1162 -437 222 -84 401 -153 400 -155 -5 -4 -2418 285 -2424 290
-4 5 53 529 63 576 3 16 10 22 22 18 9 -3 359 -134 777 -292z m-6987 -192
c332 -59 600 -109 595 -110 -13 -4 -1093 -73 -1144 -73 l-47 0 -6 88 c-4 48
-9 113 -12 145 -3 31 -2 57 3 57 4 0 280 -48 611 -107z m12691 -549 c119 -167
200 -289 195 -294 -5 -5 -313 -129 -684 -275 -371 -147 -760 -301 -865 -342
-104 -41 -302 -119 -440 -173 -137 -54 -364 -144 -504 -199 -140 -56 -256
-100 -257 -98 -3 3 49 41 361 262 116 82 251 178 302 214 51 36 162 116 248
176 85 61 213 151 283 201 70 50 222 157 337 239 116 82 280 198 365 259 392
278 445 315 450 315 3 0 97 -128 209 -285z m141 -369 c10 -12 8 -16 -11 -24
-144 -56 -1519 -599 -2099 -828 -677 -268 -793 -313 -797 -309 -3 2 22 22 55
44 43 30 294 133 948 392 1484 586 1675 661 1774 701 109 43 113 44 130 24z
m-56 -91 c4 -9 5 -18 4 -19 -2 -1 -142 -56 -313 -123 -282 -110 -966 -380
-2025 -799 -217 -86 -473 -187 -568 -224 -96 -38 -177 -69 -180 -69 -3 0 22
21 57 46 53 38 166 86 680 290 339 134 996 394 1461 578 465 184 852 335 861
335 9 1 20 -6 23 -15z m-46 -84 c12 -19 9 -22 -25 -37 -21 -8 -425 -168 -898
-355 -473 -187 -957 -378 -1075 -425 -118 -47 -305 -120 -415 -163 -110 -43
-348 -137 -529 -209 -182 -72 -331 -129 -333 -128 -4 5 97 74 147 100 25 13
482 197 1015 407 534 211 1222 483 1530 606 308 122 562 222 565 223 3 1 11
-8 18 -19z m-7418 -491 c21 -156 38 -285 36 -286 -1 -2 -330 33 -732 78 -401
44 -933 102 -1181 129 -249 28 -462 50 -474 50 -12 0 -20 2 -18 5 5 4 277 41
1324 179 314 42 667 88 785 104 118 16 216 28 218 27 1 -1 20 -130 42 -286z
m-2154 -69 c148 -16 580 -63 959 -105 380 -41 790 -86 913 -100 123 -14 227
-25 233 -25 5 0 9 -7 9 -15 0 -8 -1 -15 -2 -15 -2 0 -349 38 -773 85 -423 46
-987 108 -1252 137 -266 29 -483 56 -483 60 0 15 129 8 396 -22z m-401 -5 c72
-8 441 -49 820 -90 1444 -158 1610 -177 1619 -186 5 -5 7 -12 3 -15 -6 -6
-2550 269 -2627 284 l-35 6 40 7 c22 3 42 7 45 8 3 0 64 -6 135 -14z m405 -95
c349 -38 935 -102 1302 -142 511 -56 669 -76 673 -87 3 -8 4 -15 2 -17 -2 -2
-145 12 -318 31 -328 36 -1222 134 -1924 210 -342 38 -466 52 -579 66 -6 1 7
5 29 10 59 11 119 6 815 -71z" fill="#36A7E4"/>
</g>
<g transform="translate(0.000000,958.000000) scale(0.100000,-0.100000)"
fill="#img1" stroke="none">
<path d="M10666 5725 c-188 -77 -367 -286 -531 -620 -268 -545 -278 -1002 -24
-1176 146 -102 372 -91 556 27 130 83 249 226 323 388 63 139 91 270 91 432 1
211 -64 324 -185 324 -102 0 -175 -70 -266 -255 -57 -115 -100 -246 -100 -307
0 -74 59 -135 121 -126 35 5 36 -5 14 -101 -31 -131 -103 -212 -176 -196 -69
15 -119 145 -119 306 0 300 184 928 330 1127 62 83 89 31 55 -103 -22 -84 -57
-155 -122 -251 -49 -73 -54 -85 -42 -100 11 -13 25 -15 73 -11 130 12 295 132
361 263 26 52 30 69 30 144 0 94 -18 141 -72 192 -75 71 -206 89 -317 43z" fill="rgb(0, 76, 106)"/>
<path d="M7213 5656 c-150 -47 -423 -377 -585 -706 -186 -380 -245 -689 -164
-865 76 -167 256 -251 451 -212 270 55 505 312 505 552 0 55 -3 66 -21 75 -28
16 -55 -4 -123 -88 -73 -92 -138 -149 -211 -183 -70 -34 -108 -36 -134 -10
-28 28 -35 78 -28 210 8 145 36 271 122 529 79 242 179 452 214 452 15 0 14
-41 -4 -146 -42 -240 -105 -435 -203 -632 -83 -167 -85 -184 -23 -190 55 -6
137 43 232 137 176 175 281 395 309 650 12 113 8 166 -21 257 -47 147 -173
214 -316 170z" fill="rgb(0, 76, 106)"/>
<path d="M14843 5655 c-239 -74 -555 -570 -687 -1076 -58 -223 -71 -428 -35
-544 39 -126 146 -195 256 -166 52 14 75 43 136 171 101 211 240 380 313 380
32 0 57 -40 48 -76 -19 -79 -78 -147 -185 -216 -78 -50 -82 -57 -81 -142 4
-213 172 -487 347 -567 77 -35 137 -21 219 52 57 50 146 155 146 171 0 7 -49
60 -109 119 -96 96 -222 257 -221 284 0 6 14 26 31 45 169 197 247 357 256
525 5 82 3 93 -18 124 -45 65 -70 76 -172 76 -82 -1 -99 -4 -161 -33 -114 -53
-260 -173 -318 -262 l-16 -25 4 25 c43 313 113 589 204 810 33 79 86 170 101
170 16 0 22 -52 15 -145 -10 -136 -38 -258 -86 -370 -54 -130 -55 -132 -39
-151 10 -13 25 -15 65 -11 139 14 287 157 356 343 33 88 33 257 -1 332 -61
135 -221 203 -368 157z" fill="rgb(0, 76, 106)"/>
<path d="M3177 5629 c-59 -14 -129 -54 -174 -98 -46 -46 -95 -140 -152 -292
-38 -101 -41 -104 -83 -122 -89 -38 -157 -127 -165 -218 -5 -52 -3 -60 20 -83
14 -14 35 -26 47 -26 25 0 26 3 -9 -132 -107 -414 -106 -545 5 -667 62 -69
103 -86 214 -86 114 0 179 22 273 93 64 49 131 127 121 143 -3 5 -23 9 -45 9
-22 0 -56 7 -77 15 -79 34 -105 84 -104 200 1 101 29 311 51 375 l18 54 59 12
c32 6 71 17 86 24 37 18 96 95 109 143 26 99 7 132 -89 150 -34 6 -62 15 -62
20 0 22 37 133 81 245 65 163 64 208 -6 238 -38 16 -62 16 -118 3z" fill="rgb(0, 76, 106)"/>
<path d="M11930 5173 c-58 -9 -160 -47 -234 -86 -280 -149 -488 -442 -504
-709 -5 -93 9 -192 35 -243 63 -123 208 -214 401 -251 160 -31 304 -12 458 61
232 109 351 241 414 459 55 193 24 393 -80 518 -42 50 -121 88 -184 88 -95 -1
-285 -85 -309 -137 -9 -20 -3 -30 61 -91 83 -79 125 -158 142 -264 39 -249
-135 -468 -313 -393 -56 23 -92 60 -123 127 -27 58 -29 72 -29 178 1 136 18
207 78 330 31 65 60 103 117 161 89 90 168 132 281 150 86 13 105 21 112 48
12 46 -33 61 -181 60 -64 -1 -128 -4 -142 -6z" fill="rgb(0, 76, 106)"/>
<path d="M13324 5160 c-39 -10 -111 -38 -160 -63 -308 -155 -526 -465 -527
-752 0 -111 18 -185 61 -250 126 -188 473 -277 737 -190 153 50 327 164 397
258 141 192 180 496 87 678 -30 59 -94 125 -146 150 -37 18 -56 21 -115 17
-57 -5 -87 -14 -163 -52 -52 -25 -103 -58 -115 -73 l-20 -26 75 -77 c113 -116
153 -221 142 -372 -20 -298 -307 -405 -435 -163 -26 47 -27 57 -27 190 1 124
4 149 27 218 78 232 245 388 448 418 41 6 83 18 93 27 28 25 21 51 -18 68 -51
21 -250 18 -341 -6z" fill="rgb(0, 76, 106)"/>
<path d="M17880 5174 c-165 -31 -366 -147 -498 -289 -170 -181 -249 -372 -240
-578 5 -116 29 -183 89 -252 126 -144 429 -222 647 -167 101 26 233 87 317
147 175 125 276 326 277 555 1 108 -12 170 -49 246 -53 108 -143 173 -239 174
-105 0 -314 -99 -314 -150 0 -10 23 -38 50 -61 115 -97 166 -219 158 -381 -3
-76 -9 -103 -32 -148 -102 -203 -308 -215 -403 -22 -26 53 -28 65 -28 182 0
103 4 138 23 200 76 243 246 410 447 440 86 13 115 27 115 55 0 42 -24 50
-164 52 -72 0 -142 -1 -156 -3z" fill="rgb(0, 76, 106)"/>
<path d="M7774 5131 c-43 -26 -70 -75 -95 -167 -18 -66 -22 -108 -22 -259 -1
-233 28 -435 93 -646 44 -141 87 -195 167 -206 60 -8 119 23 213 114 161 153
427 512 514 693 40 82 41 89 45 201 4 139 -13 215 -57 249 -34 27 -88 21 -116
-12 -24 -30 -105 -193 -200 -403 -42 -93 -101 -219 -130 -280 l-54 -110 -2
185 c-1 267 -15 488 -34 531 -20 47 -85 105 -133 118 -62 18 -154 14 -189 -8z" fill="rgb(0, 76, 106)"/>
<path d="M4383 5130 c-76 -16 -115 -44 -146 -105 -8 -16 -51 -124 -95 -240
-86 -223 -178 -445 -191 -458 -14 -14 -32 195 -40 448 -11 319 -15 330 -143
327 -147 -3 -225 -60 -266 -191 -13 -44 -17 -90 -16 -216 1 -184 11 -256 60
-450 45 -176 85 -273 137 -331 49 -53 87 -65 161 -50 85 16 162 115 303 391
49 95 83 150 83 137 0 -43 40 -225 67 -307 81 -249 200 -375 355 -375 106 1
165 50 254 211 91 163 164 359 219 582 87 350 86 591 0 613 -98 25 -263 -81
-298 -192 -11 -35 -19 -125 -26 -314 -11 -259 -24 -362 -57 -464 -21 -61 -22
-58 -58 120 -40 201 -66 403 -76 596 -9 186 -20 230 -61 256 -27 17 -112 23
-166 12z" fill="rgb(0, 76, 106)"/>
<path d="M6000 5130 c-208 -36 -436 -210 -561 -427 -135 -237 -185 -477 -129
-625 65 -175 285 -253 500 -178 164 57 390 203 488 314 46 53 43 80 -15 110
-56 28 -81 21 -203 -59 -109 -72 -184 -105 -237 -105 -32 0 -79 25 -87 46 -5
13 -1 15 21 11 117 -22 342 138 471 336 128 195 130 416 6 526 -34 29 -56 40
-107 49 -71 13 -81 13 -147 2z m-3 -305 c-4 -69 -15 -119 -46 -213 -44 -135
-91 -221 -158 -291 -41 -43 -45 -45 -55 -27 -15 26 -3 154 22 243 43 156 138
354 187 393 26 20 28 21 41 3 10 -13 13 -40 9 -108z" fill="rgb(0, 76, 106)"/>
<path d="M9460 5124 c-208 -56 -411 -228 -537 -454 -48 -87 -100 -227 -118
-318 -34 -168 -6 -299 81 -385 180 -178 519 -104 857 187 110 95 120 126 55
166 -56 34 -83 27 -208 -55 -108 -71 -184 -105 -236 -105 -35 0 -72 17 -83 38
-10 18 -7 20 40 20 157 0 424 237 509 451 59 151 40 321 -47 403 -69 65 -188
85 -313 52z m41 -216 c20 -74 -33 -313 -97 -440 -32 -63 -125 -178 -144 -178
-15 0 -19 63 -10 133 27 186 182 531 232 515 7 -3 15 -16 19 -30z" fill="rgb(0, 76, 106)"/>
<path d="M16109 5130 c-302 -39 -607 -309 -650 -575 -27 -167 55 -260 295
-336 195 -61 246 -99 246 -179 -1 -73 -65 -170 -135 -201 -54 -25 -62 -24 -80
11 -25 48 -19 126 15 198 37 79 38 100 4 108 -63 16 -181 -23 -259 -85 -138
-112 -168 -259 -70 -356 62 -63 122 -80 270 -79 200 1 339 53 505 192 156 129
231 249 231 372 1 140 -64 193 -321 260 -142 37 -204 63 -225 93 -37 52 -3
215 63 307 29 41 82 89 98 90 40 1 57 -179 29 -295 -20 -85 -19 -111 7 -129
12 -9 43 -16 68 -16 98 0 213 91 271 215 82 172 -9 348 -206 400 -63 16 -70
16 -156 5z" fill="rgb(0, 76, 106)"/>
<path d="M18895 5114 c-96 -50 -152 -159 -234 -459 -81 -294 -109 -607 -64
-707 57 -125 215 -118 341 16 30 31 55 69 61 91 10 36 28 211 51 498 10 131
26 217 40 217 14 0 30 -88 30 -167 1 -95 13 -160 33 -180 13 -13 18 -13 45 1
73 38 143 262 144 466 2 173 -30 240 -113 240 -38 0 -48 -5 -89 -51 l-47 -50
-13 31 c-19 47 -55 70 -109 70 -25 0 -59 -7 -76 -16z" fill="rgb(0, 76, 106)"/>
<path d="M20310 5093 c-52 -9 -158 -47 -233 -84 -247 -122 -490 -372 -587
-606 -88 -211 -75 -406 33 -498 128 -110 294 -59 630 193 82 62 152 110 155
108 2 -3 -1 -42 -7 -88 -32 -226 -140 -562 -196 -608 -67 -56 -29 243 51 402
13 26 24 54 24 63 0 60 -265 -80 -381 -202 -130 -137 -145 -294 -38 -401 55
-56 98 -74 174 -73 99 1 237 54 370 144 127 87 229 205 305 355 92 183 182
525 184 698 1 101 -8 121 -64 144 l-29 12 18 37 c59 116 65 232 15 303 -35 51
-78 77 -153 94 -52 13 -213 17 -271 7z m52 -223 c-5 -96 -45 -204 -109 -293
-19 -27 -32 -55 -29 -62 6 -16 84 -30 118 -20 21 5 20 4 -6 -17 -16 -12 -70
-54 -119 -93 -131 -103 -218 -165 -233 -165 -44 0 -43 127 1 250 61 169 199
365 305 432 63 40 76 35 72 -32z" fill="rgb(0, 76, 106)"/>
<path d="M16858 4295 c-146 -40 -206 -105 -248 -272 -17 -66 -18 -78 -6 -108
26 -61 108 -69 249 -25 37 12 81 33 98 48 39 35 80 154 87 249 4 67 3 73 -21
97 -30 30 -79 33 -159 11z" fill="rgb(0, 76, 106)"/>
</g>
</svg>
